<svg id="图层_1" data-name="图层 1" xmlns="http://www.w3.org/2000/svg" viewBox="0 0 1860 400"><defs><style>.cls-1,.cls-2{fill:#364c4b;}.cls-2{fill-rule:evenodd;}.cls-3{fill:#00a6ab;}.cls-4{fill:#fff;}.cls-5{fill:#52efc2;}</style></defs><title>CORDYS</title><path class="cls-1" d="M896.569,190.276v17.977c0,32.358-1.893,54.95-7.763,67.772q-14.024,32.9-43.145,48.177-27.867,15.1-70.29,15.1t-70.289-15.1q-29.486-15.995-43.145-48.177c-6.111-13.3-7.078-35.891-7.078-67.772V190.276c0-39.069,3.183-65.733,13.73-80a91.294,91.294,0,0,1,36.493-35.235q28.044-15.457,70.289-15.459,42.066,0,70.29,15.459,22.112,11.867,36.493,35.235C892.46,125.02,896.569,151.688,896.569,190.276Zm-121.2,93.48q33.437-.54,42.426-13.3,10.246-8.267,10.246-47.818V180.748q0-46.2-11.5-53.391-10.968-11.144-41.168-12.224-30.2,1.079-41.167,12.224-12.943,8.09-12.943,51.773v42.426q0,39.73,11.325,48.9Q741.574,283.219,775.371,283.756Z"/><path class="cls-1" d="M1494.208,337.427l.3-110.663-79.5-165.1h77.3l40.33,90.421,47.084-90.421h76.941l-82.854,165.1.055,110.663Z"/><path class="cls-1" d="M615.43,278.268v53.624a569.6,569.6,0,0,1-72.987,4.626c-19.524,0-66.581,4.512-95.408-36.2-15.1-21.324-23.913-56.075-23.913-108.189,0-53.524,13.482-86.6,32.968-105.259,29.789-28.531,71.777-25.334,86.7-25.334,19.222,0,44.352.45,72.635,2.96v54.216c-26.283-2.307-51.01-2.145-66.13-2.145q-36.045,0-47.822,11.956c-3.649,2.972-14.975,14.851-14.975,58.963,0,70.346,11.635,79.231,13.392,80.989C514.363,285.461,587.843,279.715,615.43,278.268Z"/><path class="cls-1" d="M1005.439,252.786v84.972H936.4V60.619l94.092-1.17h25.6q56.057,0,77.87,36.591a121.369,121.369,0,0,1,7.749,23.072,165.1,165.1,0,0,1,3.246,34.429V160.3a110.515,110.515,0,0,1-3.425,28.841,75.758,75.758,0,0,1-7.932,18.745q-10.1,17.306-32.265,26.858,13.88,5.23,25.055,18.205a111.508,111.508,0,0,1,7.572,10.455c14.323,21.424,13.179,74.354,13.179,74.354h-64.971c-1.8-5.526-2.585-62.974-21.657-78.825C1050.4,250.525,1006.639,252.668,1005.439,252.786Zm0-48.57c1.322.121,54.479,4.453,69.036-12.913,6.734-8.033,8.472-14.78,8.472-27.4V149.936q0-22.53-6.308-30.283-6.851-7.029-21.81-9.012-16.405-2.163-49.39.9Z"/><path class="cls-2" d="M1291.233,61.538h-104.67V335.609h104.67c66.681-.029,120.742-45.174,120.742-100.871V162.432C1411.975,106.721,1357.914,61.583,1291.233,61.538Zm53.5,175.558c0,24.706-23.933,44.727-53.5,44.756h-34.951V115.3h34.951c29.571.028,53.5,20.064,53.5,44.756Z"/><path class="cls-1" d="M1743.674,338.109a428.1,428.1,0,0,1-45.017-2.607q-9.384-1.042-19.293-2.433l-25.573-2.424.547-65.807,40.08,6.267s15.756,2.259,22.943,2.955q12.859,1.216,23.291,1.216,37.89,0,43.8-17.206a14.78,14.78,0,0,0-.348-13.906q-3.651-7.47-15.47-12.862a123.928,123.928,0,0,0-12.688-4.693L1741,222.089q-9.909-2.43-17.73-4.866-10.083-3.127-18.424-6.605-20.685-8.69-32.154-20.161a55.357,55.357,0,0,1-14.08-28.506,91.9,91.9,0,0,1-.521-27.288q4.694-44.147,37.718-60.66,12.338-6.6,29.72-9.56,6.78-1.043,15.471-1.738l14.947-1.043h10.081q17.208,0,37.89,2.086l16.861,1.912,19.608,2.589.381,57.724a269.76,269.76,0,0,0-28.506-5.041,287.274,287.274,0,0,0-39.977-3.129c-26.419,0-35.548,5.615-40.182,17.548a33.722,33.722,0,0,0-1.348,14.892c.613,5.821.245,7.353,11.982,13.446q5.386,2.438,13.557,5.214l34.415,10.255q9.908,3.131,17.729,6.431,18.942,8,28.679,18.425,11.472,11.47,14.774,28.678a89.318,89.318,0,0,1,.522,26.768c-3.13,29.2-17.72,55.419-39.736,66.656q-12.168,6.608-29.72,9.386-6.78,1.042-15.471,1.738l-13.383.869Z"/><path class="cls-3" d="M6.878,139.205V259.547a64.675,64.675,0,0,0,32.337,56.009l104.219,60.171a64.672,64.672,0,0,0,64.674,0l104.218-60.171a64.668,64.668,0,0,0,32.337-56.009V139.205A64.671,64.671,0,0,0,312.326,83.2L208.108,23.025a64.678,64.678,0,0,0-64.674,0L39.215,83.2A64.675,64.675,0,0,0,6.878,139.205Z"/><path class="cls-4" d="M238.648,124.318V98.672A15.673,15.673,0,0,0,222.976,83h-96a15.672,15.672,0,0,0-15.672,15.672v21.362a15.671,15.671,0,0,1-15.672,15.672H74.273A15.67,15.67,0,0,0,58.6,151.378v96a15.671,15.671,0,0,0,15.672,15.672H95.635a15.668,15.668,0,0,1,15.672,15.672V300.08a15.671,15.671,0,0,0,15.672,15.672h96a15.666,15.666,0,0,0,15.672-15.672V274.435a15.672,15.672,0,0,0-15.672-15.672H126.948a11.353,11.353,0,0,1-11.357-11.357V151.09a11.1,11.1,0,0,1,11.1-11.1h96.285a15.673,15.673,0,0,0,15.672-15.672Z"/><path class="cls-5" d="M264.445,199.376h0a28.494,28.494,0,0,1,28.5,28.5h0a28.494,28.494,0,0,1-28.5,28.495h0a28.494,28.494,0,0,1-28.5-28.495h0a28.493,28.493,0,0,1,28.5-28.5Z"/></svg>